<svg width="40" height="40" viewBox="0 0 40 40" fill="none" xmlns="http://www.w3.org/2000/svg">
<path d="M0 9.6C0 6.23969 0 4.55953 0.653961 3.27606C1.2292 2.14708 2.14708 1.2292 3.27606 0.653961C4.55953 0 6.23969 0 9.6 0H30.4C33.7603 0 35.4405 0 36.7239 0.653961C37.8529 1.2292 38.7708 2.14708 39.346 3.27606C40 4.55953 40 6.23969 40 9.6V30.4C40 33.7603 40 35.4405 39.346 36.7239C38.7708 37.8529 37.8529 38.7708 36.7239 39.346C35.4405 40 33.7603 40 30.4 40H9.6C6.23969 40 4.55953 40 3.27606 39.346C2.14708 38.7708 1.2292 37.8529 0.653961 36.7239C0 35.4405 0 33.7603 0 30.4V9.6Z" fill="#129CC2"/>
<path fill-rule="evenodd" clip-rule="evenodd" d="M12.341 30.8907L17.616 19.5379L3.125 5L27.3573 20.9591L14.8865 11.7879L13.0357 6.53292L20.2811 13.8018L22.9465 8.06563L37.8125 10.3648L27.2355 10.2661L25.6252 13.7316L22.9941 8.20109L27.5267 21.0708L12.2855 31.0104L10.2866 35.3125L8.66277 27.3759L13.9849 25.5969L12.341 30.8907Z" fill="white"/>
</svg>
