<svg xmlns="http://www.w3.org/2000/svg" width="60" height="60" viewBox="0 0 60 60"><path fill-rule="evenodd" fill="#68A0AF" d="M29.998 60.002C13.428 60.002-.004 46.57-.004 30c0-16.57 13.433-30 30.002-30 16.57 0 30 13.43 30 30S46.57 60.002 30 60.002zm0-58.003C14.534 2 1.996 14.534 1.996 30s12.538 28.002 28.002 28.002c15.465 0 28-12.537 28-28.002C58 14.535 45.464 2 30 2z"/><path fill-rule="evenodd" fill="#68A0AF" d="M18.016 51.61V40.218l5.252 1.82-5.252 9.574zm8.01-9.943l-7.44-2.972 7.44-4.235v7.207zm0-12.042l-20.26-9.567h20.26v9.567zm.958 11.908V20.156l7.56 8.313-7.56 13.063zM35.01 13.44v13.29l-3.86-4.394 3.86-8.897zm1.13 3.653v-3.54l5.03 3.54-5.03 3.54v-3.54zm4.25 1.948l1.546-1.995 12.007 1.996H40.39z"/></svg>