<?xml version="1.0" encoding="UTF-8" standalone="no"?>
<svg width="24px" height="20px" viewBox="0 0 24 20" version="1.1" xmlns="http://www.w3.org/2000/svg" xmlns:xlink="http://www.w3.org/1999/xlink" xmlns:sketch="http://www.bohemiancoding.com/sketch/ns">
    <title>icon-color</title>
    <description>Created with Sketch (http://www.bohemiancoding.com/sketch)</description>
    <defs></defs>
    <g id="Page-1" stroke="none" stroke-width="1" fill="none" fill-rule="evenodd" sketch:type="MSPage">
        <g id="Icons-20px" sketch:type="MSArtboardGroup" transform="translate(-186.000000, 0.000000)">
            <g id="icon-color" sketch:type="MSLayerGroup" transform="translate(188.000000, 0.000000)">
                <path d="M7,18.331507 C7.94845361,18.7531816 8.95287187,18.9863804 9.99558174,18.9991584 C11.0382916,19.0151309 12.0463918,18.8032288 13,18.4081751 C12.404271,15.9175268 11.3726068,13.719708 10.0382916,12 C8.6826215,13.6835036 7.62518409,15.8557664 7,18.331507 Z" id="Shape-copy" fill="#D0011B" sketch:type="MSShapeGroup" transform="translate(10.000000, 15.500000) rotate(-181.000000) translate(-10.000000, -15.500000) "></path>
                <path d="M4,11.427006 C5.10652921,11.7884414 6.27835052,11.988326 7.49484536,11.9992786 C8.71134021,12.0129693 9.88745704,11.831339 11,11.4927215 C10.3049828,9.35788012 9.10137457,7.47403544 7.54467354,6 C5.96305842,7.44300312 4.72938144,9.30494263 4,11.427006 Z" id="Shape-copy" fill="#303BA3" sketch:type="MSShapeGroup" transform="translate(7.500000, 9.000000) rotate(-67.000000) translate(-7.500000, -9.000000) "></path>
                <path d="M10,10.522505 C10.9484536,10.8237011 11.9528719,10.9902717 12.9955817,10.9993988 C14.0382916,11.0108078 15.0463918,10.8594491 16,10.577268 C15.404271,8.79823343 14.3726068,7.22836287 13.0382916,6 C11.6826215,7.2025026 10.6251841,8.75411885 10,10.522505 Z" id="Shape-copy" fill="#417505" sketch:type="MSShapeGroup" transform="translate(13.000000, 8.500000) rotate(41.000000) translate(-13.000000, -8.500000) "></path>
                <path d="M9.97109229,9 C11.0338662,8.11137107 12.4190358,7.57827535 13.9299775,7.59133742 C14.5236216,7.59664389 15.0958845,7.68644562 15.6354467,7.84808873 C15.8647711,7.23784516 15.9934778,6.58065978 15.9997664,5.89367655 C16.028694,2.66775353 13.3673572,0.02921545 10.0532634,0.000233982882 C6.74000805,-0.0283392946 4.02962014,2.56366516 4.00027332,5.78958818 C3.99356548,6.47657141 4.1105335,7.13579774 4.32811916,7.74971502 C4.87103522,7.59827665 5.44455582,7.51786328 6.03819995,7.52316975 C7.54956088,7.53623182 8.92466874,8.09341073 9.97109229,9 L9.97109229,9 Z" id="Shape" fill="#00FFFF" sketch:type="MSShapeGroup"></path>
                <path d="M7.96729156,13.8987564 C7.97321659,13.1796357 8.10356725,12.4908703 8.33464341,11.8521269 C6.48391803,11.2792246 5.0136642,9.83713535 4.38476461,8 C1.87297519,8.72724394 0.0247891107,11.0530564 0.000242558705,13.8269299 C-0.0293825903,17.2061986 2.65846486,19.9698111 6.0035674,19.9997388 C7.52883936,20.0138476 8.92672317,19.4554816 10,18.5251566 C8.7392383,17.3917506 7.95078612,15.7367469 7.96729156,13.8987564 L7.96729156,13.8987564 Z" id="Shape" fill="#FF00FF" sketch:type="MSShapeGroup"></path>
                <path d="M15.7536591,8 C15.0978973,9.83042013 13.6142467,11.2488886 11.7695493,11.7898699 C11.9878567,12.4345893 12.1041474,13.126891 12.0974302,13.8479137 C12.0818968,15.6916226 11.2695414,17.336 10,18.4492555 C11.0487151,19.4013312 12.4253111,19.9864655 13.9383492,19.9997542 C17.255362,20.0297611 19.9695106,17.3081364 19.9997378,13.9199302 C20.0249271,11.1387204 18.2327074,8.77503503 15.7536591,8 L15.7536591,8 Z" id="Shape" fill="#FFED00" sketch:type="MSShapeGroup"></path>
                <path d="M8,11.618004 C8.63230241,11.8589609 9.30191458,11.9922174 9.99705449,11.9995191 C10.6921944,12.0086462 11.3642612,11.8875593 12,11.6618144 C11.6028473,10.2385867 10.9150712,8.9826903 10.0255277,8 C9.12174767,8.96200208 8.4167894,10.2032951 8,11.618004 Z" id="Shape" fill="#000000" sketch:type="MSShapeGroup"></path>
            </g>
        </g>
    </g>
</svg>