<svg 
 xmlns="http://www.w3.org/2000/svg"
 xmlns:xlink="http://www.w3.org/1999/xlink"
 width="24px" height="24px">
<path fill-rule="evenodd"  fill="rgb(177, 181, 183)"
 d="M12.000,24.000 C5.383,24.000 -0.000,18.617 -0.000,12.000 C-0.000,5.383 5.383,-0.000 12.000,-0.000 C18.617,-0.000 24.000,5.383 24.000,12.000 C24.000,18.617 18.617,24.000 12.000,24.000 ZM12.000,1.000 C5.935,1.000 1.000,5.935 1.000,12.000 C1.000,18.065 5.935,23.000 12.000,23.000 C18.065,23.000 23.000,18.065 23.000,12.000 C23.000,5.935 18.065,1.000 12.000,1.000 ZM14.070,12.419 C14.070,12.419 14.994,18.424 14.994,18.424 C15.017,18.568 14.975,18.715 14.879,18.826 C14.785,18.936 14.646,19.000 14.500,19.000 C14.500,19.000 9.500,19.000 9.500,19.000 C9.354,19.000 9.215,18.936 9.121,18.826 C9.025,18.715 8.983,18.568 9.006,18.424 C9.006,18.424 9.929,12.419 9.929,12.419 C8.731,11.697 8.000,10.418 8.000,9.000 C8.000,6.794 9.794,5.000 12.000,5.000 C14.206,5.000 16.000,6.794 16.000,9.000 C16.000,10.418 15.269,11.697 14.070,12.419 ZM12.000,6.000 C10.346,6.000 9.000,7.346 9.000,9.000 C9.000,10.157 9.649,11.191 10.695,11.698 C10.892,11.794 11.004,12.007 10.971,12.224 C10.971,12.224 10.082,18.000 10.082,18.000 C10.082,18.000 13.917,18.000 13.917,18.000 C13.917,18.000 13.028,12.224 13.028,12.224 C12.995,12.007 13.106,11.794 13.304,11.698 C14.350,11.191 15.000,10.157 15.000,9.000 C15.000,7.346 13.654,6.000 12.000,6.000 Z"/>
</svg>