<svg 
 xmlns="http://www.w3.org/2000/svg"
 xmlns:xlink="http://www.w3.org/1999/xlink"
 width="24px" height="24px">
<path fill-rule="evenodd"  fill="rgb(177, 181, 183)"
 d="M20.542,20.426 C18.267,22.731 15.234,24.000 12.000,24.000 C8.772,24.000 5.743,22.735 3.470,20.439 C1.232,18.177 -0.000,15.180 -0.000,12.000 C-0.000,5.383 5.383,-0.000 12.000,-0.000 C18.617,-0.000 24.000,5.383 24.000,12.000 C24.000,15.173 22.772,18.166 20.542,20.426 ZM19.348,20.166 C18.371,19.631 16.952,19.107 15.434,18.558 C14.907,18.367 14.366,18.171 13.825,17.968 C13.629,17.895 13.500,17.709 13.500,17.500 C13.500,17.500 13.500,15.000 13.500,15.000 C13.500,14.785 13.638,14.594 13.842,14.526 C13.882,14.511 15.000,14.072 15.000,12.000 C15.000,11.724 15.224,11.500 15.500,11.500 C15.529,11.474 15.620,11.288 15.620,11.000 C15.620,10.712 15.529,10.526 15.482,10.494 C15.206,10.494 15.000,10.276 15.000,10.000 C15.000,9.863 15.044,9.725 15.142,9.420 C15.337,8.810 15.744,7.538 15.515,6.621 C15.353,5.972 14.189,5.500 12.750,5.500 C11.310,5.500 10.147,5.972 9.985,6.621 C9.920,6.881 9.663,7.043 9.402,6.990 C8.932,6.896 8.727,7.039 8.688,7.090 C8.345,7.542 8.735,8.933 8.882,9.456 C8.963,9.744 9.000,9.876 9.000,10.000 C9.000,10.276 8.776,10.500 8.500,10.500 C8.471,10.526 8.380,10.712 8.380,11.000 C8.380,11.288 8.471,11.474 8.518,11.506 C8.794,11.506 9.000,11.724 9.000,12.000 C9.000,14.072 10.118,14.511 10.165,14.528 C10.362,14.601 10.500,14.791 10.500,15.000 C10.500,15.000 10.500,17.500 10.500,17.500 C10.500,17.708 10.371,17.894 10.177,17.968 C9.686,18.153 9.176,18.338 8.665,18.523 C7.186,19.059 5.696,19.612 4.665,20.179 C6.686,21.996 9.261,23.000 12.000,23.000 C14.745,23.000 17.325,21.991 19.348,20.166 ZM12.000,1.000 C5.935,1.000 1.000,5.935 1.000,12.000 C1.000,14.780 2.028,17.408 3.903,19.444 C5.019,18.781 6.696,18.173 8.324,17.584 C8.720,17.440 9.114,17.297 9.500,17.153 C9.500,17.153 9.500,15.305 9.500,15.305 C8.999,14.996 8.116,14.197 8.010,12.370 C7.624,12.144 7.380,11.643 7.380,11.000 C7.380,10.415 7.582,9.946 7.911,9.697 C7.675,8.855 7.256,7.325 7.891,6.486 C8.085,6.230 8.479,5.917 9.181,5.956 C9.768,4.891 11.408,4.500 12.750,4.500 C14.256,4.500 16.138,4.992 16.485,6.379 C16.781,7.561 16.343,8.949 16.100,9.706 C16.422,9.957 16.620,10.421 16.620,11.000 C16.620,11.643 16.376,12.144 15.990,12.370 C15.884,14.197 15.001,14.996 14.500,15.305 C14.500,15.305 14.500,17.153 14.500,17.153 C14.929,17.311 15.356,17.466 15.774,17.617 C17.523,18.250 19.061,18.806 20.108,19.431 C21.976,17.397 23.000,14.774 23.000,12.000 C23.000,5.935 18.065,1.000 12.000,1.000 Z"/>
</svg>